<svg xmlns="http://www.w3.org/2000/svg" viewBox="0 0 900 1100" role="img" aria-labelledby="title desc">
  <title id="title">Весёлый дегустатор</title>
  <desc id="desc">Оригинальная сытная карикатура для мясного магазина.</desc>
  <defs>
    <radialGradient id="bg" cx="45%" cy="25%" r="72%">
      <stop offset="0" stop-color="#fff4df"/>
      <stop offset="1" stop-color="#f0c98e"/>
    </radialGradient>
    <linearGradient id="apron" x1="0" x2="1" y1="0" y2="1">
      <stop offset="0" stop-color="#c83c2a"/>
      <stop offset="1" stop-color="#7b1d17"/>
    </linearGradient>
    <filter id="shadow" x="-20%" y="-20%" width="140%" height="140%">
      <feDropShadow dx="0" dy="22" stdDeviation="18" flood-color="#1b0805" flood-opacity=".24"/>
    </filter>
  </defs>
  <rect x="52" y="48" width="796" height="1004" rx="92" fill="url(#bg)"/>
  <circle cx="162" cy="173" r="70" fill="#e7a141" opacity=".45"/>
  <circle cx="744" cy="230" r="98" fill="#b32a20" opacity=".17"/>
  <path d="M143 892 C270 1012 634 1013 763 892" fill="#5a221a" opacity=".13"/>
  
  <g filter="url(#shadow)">
    <path d="M293 513 C285 411 318 340 373 309 C409 288 492 288 527 309 C582 340 615 411 607 513" fill="#f0b28a" stroke="#4a1f18" stroke-width="14"/>
    <path d="M294 206 C337 120 551 114 609 212 C587 188 533 185 504 204 C461 154 366 171 294 206Z" fill="#f0a33d" stroke="#4a1f18" stroke-width="14" stroke-linejoin="round"/>
    <path d="M325 220 C383 165 511 167 573 222 C566 176 537 134 480 118 C401 96 342 142 325 220Z" fill="#f0a33d" opacity=".75"/>
    <circle cx="374" cy="278" r="18" fill="#2b130f"/>
    <circle cx="526" cy="278" r="18" fill="#2b130f"/>
    <path d="M335 245 Q372 228 406 245" fill="none" stroke="#4a1f18" stroke-width="12" stroke-linecap="round"/><path d="M494 245 Q532 228 566 245" fill="none" stroke="#4a1f18" stroke-width="12" stroke-linecap="round"/>
    <path d="M450 285 C432 314 431 343 456 348" fill="none" stroke="#a6563b" stroke-width="10" stroke-linecap="round"/>
    
    <path d="M395 338 Q450 390 505 338" fill="none" stroke="#4a1f18" stroke-width="16" stroke-linecap="round"/>
    <path d="M276 494 C338 554 563 554 624 494 L668 912 C585 979 320 979 236 912Z" fill="url(#apron)" stroke="#4a1f18" stroke-width="14" stroke-linejoin="round"/>
    <path d="M343 550 H557 L530 920 H370Z" fill="#fff4df" stroke="#4a1f18" stroke-width="12"/>
    <path d="M234 586 C153 635 134 735 182 771 C221 800 266 736 318 683" fill="#f0b28a" stroke="#4a1f18" stroke-width="14" stroke-linecap="round"/>
    <path d="M666 586 C747 635 766 735 718 771 C679 800 634 736 582 683" fill="#f0b28a" stroke="#4a1f18" stroke-width="14" stroke-linecap="round"/>
    
    <g transform="rotate(-12 220 692)">
      <rect x="139" y="636" width="214" height="76" rx="38" fill="#b32a20" stroke="#4a1f18" stroke-width="12"/>
      <path d="M184 649 L199 699 M235 648 L250 700 M286 648 L301 700" stroke="#f7d08e" stroke-width="9" stroke-linecap="round"/>
      <path d="M124 674 C97 656 98 703 126 689" fill="none" stroke="#4a1f18" stroke-width="12" stroke-linecap="round"/>
    </g>
    <path d="M316 941 C310 988 366 1008 403 976" fill="none" stroke="#4a1f18" stroke-width="17" stroke-linecap="round"/>
    <path d="M584 941 C590 988 534 1008 497 976" fill="none" stroke="#4a1f18" stroke-width="17" stroke-linecap="round"/>
    <circle cx="262" cy="888" r="22" fill="#e7a141"/>
    <circle cx="638" cy="888" r="22" fill="#e7a141"/>
  </g>
</svg>